<svg height="512pt" viewBox="0 -45 512.01285 512" width="512pt" xmlns="http://www.w3.org/2000/svg"><path d="m208.941406 95.96875h74.945313v243.0625h-74.945313zm0 0"/><path d="m104.472656 12.003906h74.945313v126.667969h-74.945313zm0 0"/><path d="m208.941406 368.554688h74.945313v54.441406h-74.945313zm0 0"/><path d="m208.941406 12.003906h74.945313v54.441406h-74.945313zm0 0"/><path d="m104.472656 290.40625h74.945313v132.585938h-74.945313zm0 0"/><path d="m0 95.96875h74.945312v243.0625h-74.945312zm0 0"/><path d="m0 368.554688h74.945312v54.441406h-74.945312zm0 0"/><path d="m104.472656 168.199219h74.945313v92.679687h-74.945313zm0 0"/><path d="m0 12.003906h74.945312v54.441406h-74.945312zm0 0"/><path d="m427.753906 373.707031 71.730469-21.71875 12.527344 41.371094-71.730469 21.722656zm0 0"/><path d="m321.175781 21.726562 71.730469-21.7187495 13.753906 45.4140625-71.734375 21.71875zm0 0"/><path d="m343.484375 95.402344 71.730469-21.71875 75.710937 250.054687-71.730469 21.71875zm0 0"/></svg>