<svg height="511pt" viewBox="-8 0 511 511.98772" width="511pt" xmlns="http://www.w3.org/2000/svg"><path d="m238.054688.464844c-25.90625-3.652344-49.867188 14.390625-53.515626 40.296875-3.652343 25.90625 14.390626 49.867187 40.296876 53.519531 25.910156 3.648438 49.867187-14.394531 53.519531-40.300781 3.648437-25.90625-14.394531-49.867188-40.300781-53.515625zm0 0"/><path d="m306.261719 182.4375 51.714843-69.59375c7.078126-9.523438 5.09375-22.980469-4.429687-30.058594s-22.980469-5.09375-30.058594 4.429688l-42.359375 57.003906-40.949218-14 20.914062 2.710938c-3.054688-10.320313-11.875-18.441407-23.230469-20.042969-28.914062-4.054688-50.539062-7.003907-65.988281-9.0625-7.417969-.988281-14.953125.527343-21.410156 4.308593l-75.175782 44.046876c-7.03125 4.125-11.125 11.871093-10.566406 20.003906l6.703125 97.714844c.808594 11.835937 11.058594 20.777343 22.902344 19.964843 11.835937-.8125 20.777344-11.066406 19.964844-22.902343l-5.792969-84.445313 28.246094-16.558594-17.265625 122.585938-4.671875 68.976562-92.390625 15.9375c-13.816407 2.386719-23.640625 15.21875-21.671875 29.101563 2.046875 14.433594 15.589844 24.269531 29.910156 21.800781l112.886719-19.472656c11.71875-2.023438 20.535156-11.796875 21.339843-23.664063l5.324219-78.640625 30.496094 5.007813 29.546875 62.675781 12.542969 118.648437c1.398437 13.238282 12.585937 23.074219 25.605469 23.074219 15.425781 0 27.273437-13.34375 25.671874-28.492187l-13.003906-122.988282c-.304687-2.871093-1.085937-5.671874-2.316406-8.28125l-35.140625-74.546874 12.367187-89.398438-29.699218-17.40625 55.789062 19.078125c8.839844 3.023437 18.621094-.019531 24.195313-7.515625zm0 0"/><path d="m492.5625 249.085938-59.902344-46.660157c-6.277344-4.890625-15.4375-.417969-15.4375 7.542969v15.082031h-101.535156c-5.628906 0-10.1875 4.558594-10.1875 10.1875v42.78125c0 5.625 4.558594 10.1875 10.1875 10.1875h101.535156v15.082031c0 7.957032 9.160156 12.433594 15.4375 7.539063l59.902344-46.65625c4.914062-3.828125 4.914062-11.257813 0-15.085937zm0 0"/></svg>